<?xml version="1.0" encoding="UTF-8" standalone="yes"?>
<svg version="1.2" width="512px" height="512px" fill-rule="evenodd" baseProfile="tiny-ps" xmlns="http://www.w3.org/2000/svg">
  <title>bimi-svg-tiny-12-ps</title>
  <g>
    <path fill="#072234" d="M -0.5,-0.5 C 170.167,-0.5 340.833,-0.5 511.5,-0.5C 511.5,170.167 511.5,340.833 511.5,511.5C 340.833,511.5 170.167,511.5 -0.5,511.5C -0.5,340.833 -0.5,170.167 -0.5,-0.5 Z"/>
  </g>
  <g>
    <path fill="#022a4a" d="M 288.5,92.5 C 251.148,84.1694 217.148,91.1694 186.5,113.5C 186.859,111.629 187.859,110.129 189.5,109C 213.605,92.9735 240.272,86.3069 269.5,89C 275.485,89.7985 281.485,90.4652 287.5,91C 288.056,91.3826 288.389,91.8826 288.5,92.5 Z"/>
  </g>
  <g>
    <path fill="#036bab" d="M 288.5,92.5 C 291.902,93.6346 295.235,94.9679 298.5,96.5C 303.524,98.8488 308.524,101.515 313.5,104.5C 312.167,105.5 312.167,106.5 313.5,107.5C 315.423,108.308 317.423,108.808 319.5,109C 318.366,110.016 318.699,110.683 320.5,111C 317.799,112.393 315.466,113.56 313.5,114.5C 315.078,115.298 316.744,115.798 318.5,116C 317.975,116.692 317.308,117.192 316.5,117.5C 312.633,116.513 312.633,117.013 316.5,119C 314.663,120.952 312.329,121.952 309.5,122C 309.833,122.333 310.167,122.667 310.5,123C 308.381,123.007 306.547,124.174 305,126.5C 304.667,126.167 304.333,125.833 304,125.5C 298.359,127.828 292.859,128.495 287.5,127.5C 287.511,128.441 287.011,129.108 286,129.5C 285.228,129.355 284.561,129.022 284,128.5C 281.132,130.183 277.966,131.183 274.5,131.5C 272.912,132.01 271.745,133.01 271,134.5C 268.978,133.009 267.312,133.342 266,135.5C 263.116,134.797 259.949,134.63 256.5,135C 254.288,137.333 251.788,138.166 249,137.5C 248.683,139.301 248.016,139.634 247,138.5C 242.944,138.995 239.277,140.328 236,142.5C 228.777,142.627 222.277,144.127 216.5,147C 213.621,147.957 211.121,147.457 209,145.5C 208.5,146 208,146.5 207.5,147C 203.304,147.664 199.138,147.497 195,146.5C 193.635,146.844 192.468,147.511 191.5,148.5C 190.914,148.291 190.414,147.957 190,147.5C 187.942,148.109 187.109,149.109 187.5,150.5C 183.847,149.236 180.18,149.236 176.5,150.5C 175.359,151.425 175.359,152.259 176.5,153C 175.101,153.595 173.768,153.428 172.5,152.5C 172.167,153.167 171.833,153.833 171.5,154.5C 170.833,154.167 170.167,153.833 169.5,153.5C 167.556,154.189 165.556,154.689 163.5,155C 163.833,155.333 164.167,155.667 164.5,156C 163.333,156.5 162.5,157.333 162,158.5C 160.043,157.146 158.043,157.479 156,159.5C 154.921,156.937 154.421,154.271 154.5,151.5C 162.347,136.481 173.014,123.814 186.5,113.5C 217.148,91.1694 251.148,84.1694 288.5,92.5 Z"/>
  </g>
  <g>
    <path fill="#0265a5" d="M 298.5,96.5 C 326.305,105.634 347.971,122.634 363.5,147.5C 362.477,149.846 361.477,152.179 360.5,154.5C 358.092,155.201 355.758,156.201 353.5,157.5C 354.879,158.863 354.713,159.863 353,160.5C 348.951,161.102 344.951,161.769 341,162.5C 340.586,162.043 340.086,161.709 339.5,161.5C 339.264,162.247 338.93,163.08 338.5,164C 335.424,164.346 332.424,165.012 329.5,166C 330.5,166.333 331.5,166.667 332.5,167C 323.727,167.245 315.061,168.245 306.5,170C 307.167,170.333 307.833,170.667 308.5,171C 305.313,171.001 302.48,171.834 300,173.5C 298.333,173.167 296.667,172.833 295,172.5C 292.26,173.282 289.426,173.782 286.5,174C 290.167,174.333 293.833,174.667 297.5,175C 293.695,176.38 289.862,177.547 286,178.5C 285.167,177.5 284.333,176.5 283.5,175.5C 280.171,177.492 277.004,177.492 274,175.5C 273.5,175.667 273,175.833 272.5,176C 273.956,176.423 274.456,177.256 274,178.5C 272.887,177.289 271.72,177.289 270.5,178.5C 270.795,177.174 270.295,175.841 269,174.5C 267.716,175.572 267.383,176.905 268,178.5C 267.196,177.196 266.029,176.529 264.5,176.5C 258.579,178.605 252.579,178.938 246.5,177.5C 238.669,179.534 230.335,180.868 221.5,181.5C 219.333,180.046 217.333,180.212 215.5,182C 216.167,182.667 216.833,183.333 217.5,184C 216,184.5 214.5,185 213,185.5C 211.989,185.108 211.489,184.441 211.5,183.5C 209.167,184.5 207.5,186.167 206.5,188.5C 205.393,187.978 204.226,187.645 203,187.5C 198.948,189.152 194.448,190.652 189.5,192C 186.905,192.226 184.405,192.726 182,193.5C 181.667,193.167 181.333,192.833 181,192.5C 179.167,193.667 177.333,194.833 175.5,196C 176.784,197.297 176.617,198.464 175,199.5C 174.667,197.833 174.333,196.167 174,194.5C 169.822,195.494 165.322,196.494 160.5,197.5C 158.133,195.605 155.466,195.105 152.5,196C 153.167,196.333 153.833,196.667 154.5,197C 150.5,197.667 146.5,197.667 142.5,197C 142.591,191.024 143.091,184.858 144,178.5C 145.43,175.647 146.263,172.647 146.5,169.5C 148.124,162.929 150.79,156.929 154.5,151.5C 154.421,154.271 154.921,156.937 156,159.5C 158.043,157.479 160.043,157.146 162,158.5C 162.5,157.333 163.333,156.5 164.5,156C 164.167,155.667 163.833,155.333 163.5,155C 165.556,154.689 167.556,154.189 169.5,153.5C 170.167,153.833 170.833,154.167 171.5,154.5C 171.833,153.833 172.167,153.167 172.5,152.5C 173.768,153.428 175.101,153.595 176.5,153C 175.359,152.259 175.359,151.425 176.5,150.5C 180.18,149.236 183.847,149.236 187.5,150.5C 187.109,149.109 187.942,148.109 190,147.5C 190.414,147.957 190.914,148.291 191.5,148.5C 192.468,147.511 193.635,146.844 195,146.5C 199.138,147.497 203.304,147.664 207.5,147C 208,146.5 208.5,146 209,145.5C 211.121,147.457 213.621,147.957 216.5,147C 222.277,144.127 228.777,142.627 236,142.5C 239.277,140.328 242.944,138.995 247,138.5C 248.016,139.634 248.683,139.301 249,137.5C 251.788,138.166 254.288,137.333 256.5,135C 259.949,134.63 263.116,134.797 266,135.5C 267.312,133.342 268.978,133.009 271,134.5C 271.745,133.01 272.912,132.01 274.5,131.5C 277.966,131.183 281.132,130.183 284,128.5C 284.561,129.022 285.228,129.355 286,129.5C 287.011,129.108 287.511,128.441 287.5,127.5C 292.859,128.495 298.359,127.828 304,125.5C 304.333,125.833 304.667,126.167 305,126.5C 306.547,124.174 308.381,123.007 310.5,123C 310.167,122.667 309.833,122.333 309.5,122C 312.329,121.952 314.663,120.952 316.5,119C 312.633,117.013 312.633,116.513 316.5,117.5C 317.308,117.192 317.975,116.692 318.5,116C 316.744,115.798 315.078,115.298 313.5,114.5C 315.466,113.56 317.799,112.393 320.5,111C 318.699,110.683 318.366,110.016 319.5,109C 317.423,108.808 315.423,108.308 313.5,107.5C 312.167,106.5 312.167,105.5 313.5,104.5C 308.524,101.515 303.524,98.8488 298.5,96.5 Z"/>
  </g>
  <g>
    <path fill="#035f9f" d="M 363.5,147.5 C 370.989,158.147 376.655,169.814 380.5,182.5C 379.504,182.414 378.671,182.748 378,183.5C 377.056,186.347 377.556,188.847 379.5,191C 378.892,191.87 378.059,192.37 377,192.5C 377.127,190.73 375.96,189.397 373.5,188.5C 372.833,185.833 372.167,183.167 371.5,180.5C 371.167,180.667 370.833,180.833 370.5,181C 370.044,184.082 369.377,187.415 368.5,191C 370.443,190.695 372.443,190.695 374.5,191C 371.975,192.522 370.142,194.022 369,195.5C 367.273,195.354 367.106,194.687 368.5,193.5C 368.192,192.692 367.692,192.025 367,191.5C 366,192.833 365,192.833 364,191.5C 363.51,192.793 363.343,194.127 363.5,195.5C 357.684,196.958 352.018,198.958 346.5,201.5C 342.827,201.779 338.994,201.446 335,200.5C 333.47,201.636 332.137,202.636 331,203.5C 330.3,201.968 329.134,200.968 327.5,200.5C 324.679,201.074 322.346,202.408 320.5,204.5C 315.221,203.851 309.888,203.851 304.5,204.5C 303.833,206.5 303.167,208.5 302.5,210.5C 300.549,210.227 299.049,210.893 298,212.5C 297.5,212 297,211.5 296.5,211C 298.061,210.059 299.395,208.892 300.5,207.5C 295.22,204.085 290.22,204.085 285.5,207.5C 286.127,208.417 286.461,209.417 286.5,210.5C 282.5,207.833 278.5,205.167 274.5,202.5C 259.166,190.136 241.499,184.969 221.5,187C 213.766,190.578 207.433,195.745 202.5,202.5C 196.594,207.425 193.26,213.758 192.5,221.5C 191.976,223.306 191.309,224.972 190.5,226.5C 180.838,225.804 171.171,225.637 161.5,226C 163.167,226.333 164.833,226.667 166.5,227C 159.833,227.333 153.167,227.667 146.5,228C 147.737,228.232 148.737,228.732 149.5,229.5C 146.214,230.207 142.881,230.54 139.5,230.5C 138.5,230.5 137.5,230.5 136.5,230.5C 135.956,213.561 137.789,196.895 142,180.5C 143.038,176.532 144.538,172.865 146.5,169.5C 146.263,172.647 145.43,175.647 144,178.5C 143.091,184.858 142.591,191.024 142.5,197C 146.5,197.667 150.5,197.667 154.5,197C 153.833,196.667 153.167,196.333 152.5,196C 155.466,195.105 158.133,195.605 160.5,197.5C 165.322,196.494 169.822,195.494 174,194.5C 174.333,196.167 174.667,197.833 175,199.5C 176.617,198.464 176.784,197.297 175.5,196C 177.333,194.833 179.167,193.667 181,192.5C 181.333,192.833 181.667,193.167 182,193.5C 184.405,192.726 186.905,192.226 189.5,192C 194.448,190.652 198.948,189.152 203,187.5C 204.226,187.645 205.393,187.978 206.5,188.5C 207.5,186.167 209.167,184.5 211.5,183.5C 211.489,184.441 211.989,185.108 213,185.5C 214.5,185 216,184.5 217.5,184C 216.833,183.333 216.167,182.667 215.5,182C 217.333,180.212 219.333,180.046 221.5,181.5C 230.335,180.868 238.669,179.534 246.5,177.5C 252.579,178.938 258.579,178.605 264.5,176.5C 266.029,176.529 267.196,177.196 268,178.5C 267.383,176.905 267.716,175.572 269,174.5C 270.295,175.841 270.795,177.174 270.5,178.5C 271.72,177.289 272.887,177.289 274,178.5C 274.456,177.256 273.956,176.423 272.5,176C 273,175.833 273.5,175.667 274,175.5C 277.004,177.492 280.171,177.492 283.5,175.5C 284.333,176.5 285.167,177.5 286,178.5C 289.862,177.547 293.695,176.38 297.5,175C 293.833,174.667 290.167,174.333 286.5,174C 289.426,173.782 292.26,173.282 295,172.5C 296.667,172.833 298.333,173.167 300,173.5C 302.48,171.834 305.313,171.001 308.5,171C 307.833,170.667 307.167,170.333 306.5,170C 315.061,168.245 323.727,167.245 332.5,167C 331.5,166.667 330.5,166.333 329.5,166C 332.424,165.012 335.424,164.346 338.5,164C 338.93,163.08 339.264,162.247 339.5,161.5C 340.086,161.709 340.586,162.043 341,162.5C 344.951,161.769 348.951,161.102 353,160.5C 354.713,159.863 354.879,158.863 353.5,157.5C 355.758,156.201 358.092,155.201 360.5,154.5C 361.477,152.179 362.477,149.846 363.5,147.5 Z"/>
  </g>
  <g>
    <path fill="#184d63" d="M 274.5,202.5 C 270.186,201.725 265.853,201.059 261.5,200.5C 241.734,194.784 222.068,195.45 202.5,202.5C 207.433,195.745 213.766,190.578 221.5,187C 241.499,184.969 259.166,190.136 274.5,202.5 Z"/>
  </g>
  <g>
    <path fill="#045a9b" d="M 380.5,182.5 C 380.335,185.85 380.502,189.183 381,192.5C 385.02,205.196 386.353,218.196 385,231.5C 383.759,232.938 383.259,234.438 383.5,236C 381.888,236.72 380.388,236.554 379,235.5C 378.085,236.328 377.419,237.328 377,238.5C 376.667,237.5 376.333,236.5 376,235.5C 373.219,235.895 371.053,237.228 369.5,239.5C 369.467,238.011 368.967,236.678 368,235.5C 367.5,236 367,236.5 366.5,237C 366.833,238 367.167,239 367.5,240C 365.956,240.29 364.623,240.956 363.5,242C 362.101,242.595 360.768,242.428 359.5,241.5C 355.91,243.25 352.243,244.584 348.5,245.5C 345.243,245.582 342.409,244.582 340,242.5C 338.513,243.253 338.346,244.086 339.5,245C 338.256,245.456 337.423,244.956 337,243.5C 333.367,248.195 329.367,249.195 325,246.5C 323.57,246.694 322.07,246.694 320.5,246.5C 319.808,247.025 319.308,247.692 319,248.5C 317.838,246.162 316.004,244.828 313.5,244.5C 306.811,236.631 300.644,228.298 295,219.5C 291.962,216.631 289.129,213.631 286.5,210.5C 286.461,209.417 286.127,208.417 285.5,207.5C 290.22,204.085 295.22,204.085 300.5,207.5C 299.395,208.892 298.061,210.059 296.5,211C 297,211.5 297.5,212 298,212.5C 299.049,210.893 300.549,210.227 302.5,210.5C 303.167,208.5 303.833,206.5 304.5,204.5C 309.888,203.851 315.221,203.851 320.5,204.5C 322.346,202.408 324.679,201.074 327.5,200.5C 329.134,200.968 330.3,201.968 331,203.5C 332.137,202.636 333.47,201.636 335,200.5C 338.994,201.446 342.827,201.779 346.5,201.5C 352.018,198.958 357.684,196.958 363.5,195.5C 363.343,194.127 363.51,192.793 364,191.5C 365,192.833 366,192.833 367,191.5C 367.692,192.025 368.192,192.692 368.5,193.5C 367.106,194.687 367.273,195.354 369,195.5C 370.142,194.022 371.975,192.522 374.5,191C 372.443,190.695 370.443,190.695 368.5,191C 369.377,187.415 370.044,184.082 370.5,181C 370.833,180.833 371.167,180.667 371.5,180.5C 372.167,183.167 372.833,185.833 373.5,188.5C 375.96,189.397 377.127,190.73 377,192.5C 378.059,192.37 378.892,191.87 379.5,191C 377.556,188.847 377.056,186.347 378,183.5C 378.671,182.748 379.504,182.414 380.5,182.5 Z"/>
  </g>
  <g>
    <path fill="#143b4b" d="M 261.5,200.5 C 259.278,201.386 257.112,201.386 255,200.5C 253.629,201.581 252.129,202.415 250.5,203C 253.038,204.171 253.538,205.671 252,207.5C 251.667,207.167 251.333,206.833 251,206.5C 249.016,208.613 246.516,209.78 243.5,210C 240.731,212.106 237.731,213.773 234.5,215C 235.167,215.333 235.833,215.667 236.5,216C 234.5,216.667 232.5,217.333 230.5,218C 231.198,218.971 231.198,220.137 230.5,221.5C 229.599,223.688 228.265,225.521 226.5,227C 226.833,227.333 227.167,227.667 227.5,228C 225.479,228.513 223.979,229.68 223,231.5C 221.933,229.717 220.433,229.217 218.5,230C 219.956,230.423 220.456,231.256 220,232.5C 218.602,231.949 217.268,231.616 216,231.5C 214.622,233.213 212.955,234.547 211,235.5C 210.751,234.376 210.251,233.376 209.5,232.5C 209.089,233.262 208.923,234.262 209,235.5C 207.701,235.034 206.201,235.034 204.5,235.5C 203.821,239.1 202.987,238.767 202,234.5C 199.52,239.308 200.353,243.308 204.5,246.5C 205.696,246.154 205.696,245.654 204.5,245C 210.037,244.826 215.371,243.16 220.5,240C 224,239.833 227.5,239.667 231,239.5C 235.853,239.281 240.519,239.948 245,241.5C 248.481,240.758 251.814,240.758 255,241.5C 255.945,241.095 256.612,240.428 257,239.5C 258.796,241.402 258.963,243.402 257.5,245.5C 251.502,244.401 245.502,243.234 239.5,242C 231.143,240.625 223.143,241.625 215.5,245C 210.065,249.677 204.399,253.177 198.5,255.5C 198.666,249.491 198.499,243.491 198,237.5C 197.454,234.621 196.621,231.954 195.5,229.5C 195.5,229.167 195.5,228.833 195.5,228.5C 195.821,225.423 194.821,223.09 192.5,221.5C 193.26,213.758 196.594,207.425 202.5,202.5C 222.068,195.45 241.734,194.784 261.5,200.5 Z"/>
  </g>
  <g>
    <path fill="#0d3445" d="M 261.5,200.5 C 265.853,201.059 270.186,201.725 274.5,202.5C 278.5,205.167 282.5,207.833 286.5,210.5C 289.129,213.631 291.962,216.631 295,219.5C 300.644,228.298 306.811,236.631 313.5,244.5C 315.833,248.5 318.167,252.5 320.5,256.5C 310.323,254.975 300.157,253.308 290,251.5C 288.93,251.528 288.097,251.861 287.5,252.5C 279.419,250.813 271.419,248.813 263.5,246.5C 261.435,246.483 259.435,246.15 257.5,245.5C 258.963,243.402 258.796,241.402 257,239.5C 256.612,240.428 255.945,241.095 255,241.5C 251.814,240.758 248.481,240.758 245,241.5C 240.519,239.948 235.853,239.281 231,239.5C 227.5,239.667 224,239.833 220.5,240C 215.371,243.16 210.037,244.826 204.5,245C 205.696,245.654 205.696,246.154 204.5,246.5C 200.353,243.308 199.52,239.308 202,234.5C 202.987,238.767 203.821,239.1 204.5,235.5C 206.201,235.034 207.701,235.034 209,235.5C 208.923,234.262 209.089,233.262 209.5,232.5C 210.251,233.376 210.751,234.376 211,235.5C 212.955,234.547 214.622,233.213 216,231.5C 217.268,231.616 218.602,231.949 220,232.5C 220.456,231.256 219.956,230.423 218.5,230C 220.433,229.217 221.933,229.717 223,231.5C 223.979,229.68 225.479,228.513 227.5,228C 227.167,227.667 226.833,227.333 226.5,227C 228.265,225.521 229.599,223.688 230.5,221.5C 231.198,220.137 231.198,218.971 230.5,218C 232.5,217.333 234.5,216.667 236.5,216C 235.833,215.667 235.167,215.333 234.5,215C 237.731,213.773 240.731,212.106 243.5,210C 246.516,209.78 249.016,208.613 251,206.5C 251.333,206.833 251.667,207.167 252,207.5C 253.538,205.671 253.038,204.171 250.5,203C 252.129,202.415 253.629,201.581 255,200.5C 257.112,201.386 259.278,201.386 261.5,200.5 Z"/>
  </g>
  <g>
    <path fill="#e4eceb" d="M 213.5,215.5 C 218.076,215.747 220.743,218.081 221.5,222.5C 218.999,221.174 216.332,220.674 213.5,221C 212.594,222.699 212.261,224.533 212.5,226.5C 210.052,226.915 208.719,225.915 208.5,223.5C 209.366,220.308 211.032,217.641 213.5,215.5 Z"/>
  </g>
  <g>
    <path fill="#c97322" d="M 192.5,221.5 C 194.821,223.09 195.821,225.423 195.5,228.5C 194.292,227.766 192.959,227.433 191.5,227.5C 191.167,227.5 190.833,227.5 190.5,227.5C 190.5,227.167 190.5,226.833 190.5,226.5C 191.309,224.972 191.976,223.306 192.5,221.5 Z"/>
  </g>
  <g>
    <path fill="#2c5884" d="M 190.5,226.5 C 190.5,226.833 190.5,227.167 190.5,227.5C 178.441,227.582 166.441,228.249 154.5,229.5C 152.833,229.5 151.167,229.5 149.5,229.5C 148.737,228.732 147.737,228.232 146.5,228C 153.167,227.667 159.833,227.333 166.5,227C 164.833,226.667 163.167,226.333 161.5,226C 171.171,225.637 180.838,225.804 190.5,226.5 Z"/>
  </g>
  <g>
    <path fill="#af9b53" d="M 149.5,229.5 C 151.167,229.5 152.833,229.5 154.5,229.5C 149.731,230.889 144.731,231.556 139.5,231.5C 139.5,231.167 139.5,230.833 139.5,230.5C 142.881,230.54 146.214,230.207 149.5,229.5 Z"/>
  </g>
  <g>
    <path fill="#fbbb0e" d="M 190.5,227.5 C 190.833,227.5 191.167,227.5 191.5,227.5C 192.442,232.755 192.775,237.922 192.5,243C 191.5,243.333 190.5,243.667 189.5,244C 171.106,243.867 152.773,242.7 134.5,240.5C 133.292,239.766 131.959,239.433 130.5,239.5C 130.351,238.448 130.517,237.448 131,236.5C 132.667,235.267 134.167,233.933 135.5,232.5C 136.568,231.566 137.901,231.232 139.5,231.5C 144.731,231.556 149.731,230.889 154.5,229.5C 166.441,228.249 178.441,227.582 190.5,227.5 Z"/>
  </g>
  <g>
    <path fill="#e19b2c" d="M 135.5,232.5 C 134.167,233.933 132.667,235.267 131,236.5C 130.517,237.448 130.351,238.448 130.5,239.5C 131.959,239.433 133.292,239.766 134.5,240.5C 134.5,240.833 134.5,241.167 134.5,241.5C 131.888,240.629 129.221,239.963 126.5,239.5C 126.297,237.61 126.963,236.11 128.5,235C 130.743,233.864 133.076,233.03 135.5,232.5 Z"/>
  </g>
  <g>
    <path fill="#fcfdfc" d="M 257.5,245.5 C 259.435,246.15 261.435,246.483 263.5,246.5C 261.005,256.102 260.839,265.769 263,275.5C 265.499,282.664 268.666,289.497 272.5,296C 262.516,312.134 254.85,329.301 249.5,347.5C 245.844,353.944 247.178,358.944 253.5,362.5C 261.139,374.635 271.472,383.801 284.5,390C 291.124,392.626 297.124,391.626 302.5,387C 314.165,375.014 324.665,362.18 334,348.5C 334.464,349.094 334.631,349.761 334.5,350.5C 332.221,356.392 329.387,362.059 326,367.5C 320.34,375.325 313.84,382.325 306.5,388.5C 300.443,392.538 294.109,396.205 287.5,399.5C 266.473,407.474 245.473,407.474 224.5,399.5C 220.37,396.597 216.037,393.93 211.5,391.5C 207.153,388.152 203.486,384.152 200.5,379.5C 202.451,378.718 203.951,377.384 205,375.5C 212.691,362.766 220.857,350.433 229.5,338.5C 229.657,337.127 229.49,335.793 229,334.5C 217.812,316.775 206.146,299.442 194,282.5C 193.501,277.177 193.334,271.844 193.5,266.5C 193.5,265.167 193.5,263.833 193.5,262.5C 194.338,262.158 194.672,261.492 194.5,260.5C 194.328,259.508 194.662,258.842 195.5,258.5C 196.728,257.694 197.728,256.694 198.5,255.5C 204.399,253.177 210.065,249.677 215.5,245C 223.143,241.625 231.143,240.625 239.5,242C 245.502,243.234 251.502,244.401 257.5,245.5 Z"/>
  </g>
  <g>
    <path fill="#fa9a0d" d="M 191.5,227.5 C 192.959,227.433 194.292,227.766 195.5,228.5C 195.5,228.833 195.5,229.167 195.5,229.5C 195.842,235.535 196.508,241.535 197.5,247.5C 197.546,251.386 196.879,255.053 195.5,258.5C 194.662,258.842 194.328,259.508 194.5,260.5C 192.283,261.369 189.95,261.702 187.5,261.5C 186.209,261.737 185.209,261.404 184.5,260.5C 182.898,258.926 180.898,258.259 178.5,258.5C 173.998,256.443 169.331,254.776 164.5,253.5C 157.193,250.549 149.859,247.549 142.5,244.5C 141.833,244.5 141.167,244.5 140.5,244.5C 138.629,243.203 136.629,242.203 134.5,241.5C 134.5,241.167 134.5,240.833 134.5,240.5C 152.773,242.7 171.106,243.867 189.5,244C 190.5,243.667 191.5,243.333 192.5,243C 192.775,237.922 192.442,232.755 191.5,227.5 Z"/>
  </g>
  <g>
    <path fill="#055292" d="M 380.5,182.5 C 395.551,237.008 383.551,284.675 344.5,325.5C 343.675,326.386 342.675,326.719 341.5,326.5C 341.118,321.908 340.118,317.575 338.5,313.5C 337.018,296.92 333.185,280.92 327,265.5C 325.301,262.079 323.135,259.079 320.5,256.5C 318.167,252.5 315.833,248.5 313.5,244.5C 316.004,244.828 317.838,246.162 319,248.5C 319.308,247.692 319.808,247.025 320.5,246.5C 322.07,246.694 323.57,246.694 325,246.5C 329.367,249.195 333.367,248.195 337,243.5C 337.423,244.956 338.256,245.456 339.5,245C 338.346,244.086 338.513,243.253 340,242.5C 342.409,244.582 345.243,245.582 348.5,245.5C 352.243,244.584 355.91,243.25 359.5,241.5C 360.768,242.428 362.101,242.595 363.5,242C 364.623,240.956 365.956,240.29 367.5,240C 367.167,239 366.833,238 366.5,237C 367,236.5 367.5,236 368,235.5C 368.967,236.678 369.467,238.011 369.5,239.5C 371.053,237.228 373.219,235.895 376,235.5C 376.333,236.5 376.667,237.5 377,238.5C 377.419,237.328 378.085,236.328 379,235.5C 380.388,236.554 381.888,236.72 383.5,236C 383.259,234.438 383.759,232.938 385,231.5C 386.353,218.196 385.02,205.196 381,192.5C 380.502,189.183 380.335,185.85 380.5,182.5 Z"/>
  </g>
  <g>
    <path fill="#c29145" d="M 164.5,253.5 C 169.331,254.776 173.998,256.443 178.5,258.5C 173.297,257.991 168.63,256.324 164.5,253.5 Z"/>
  </g>
  <g>
    <path fill="#d99624" d="M 195.5,229.5 C 196.621,231.954 197.454,234.621 198,237.5C 198.499,243.491 198.666,249.491 198.5,255.5C 197.728,256.694 196.728,257.694 195.5,258.5C 196.879,255.053 197.546,251.386 197.5,247.5C 196.508,241.535 195.842,235.535 195.5,229.5 Z"/>
  </g>
  <g>
    <path fill="#055292" d="M 140.5,244.5 C 141.167,244.5 141.833,244.5 142.5,244.5C 143.398,246.627 145.064,247.794 147.5,248C 147.167,248.333 146.833,248.667 146.5,249C 147.191,250.067 147.691,251.234 148,252.5C 148.333,251.5 148.667,250.5 149,249.5C 150.579,251.041 152.413,252.208 154.5,253C 158.396,254.366 162.396,255.533 166.5,256.5C 168.005,257.842 168.672,259.508 168.5,261.5C 169.822,261.67 170.989,261.337 172,260.5C 173.833,262.333 175.667,264.167 177.5,266C 175.561,266.908 174.561,268.408 174.5,270.5C 171.927,270.148 169.594,270.648 167.5,272C 168.325,273.688 169.325,273.855 170.5,272.5C 172.222,275.749 171.222,277.582 167.5,278C 166.809,279.067 166.309,280.234 166,281.5C 163.978,280.009 162.312,280.342 161,282.5C 160.692,281.692 160.192,281.025 159.5,280.5C 158.833,282.5 158.167,284.5 157.5,286.5C 156.434,284.231 155.434,281.564 154.5,278.5C 152.876,278.36 151.71,279.027 151,280.5C 150.082,278.624 148.582,277.624 146.5,277.5C 141.373,267.622 137.706,257.122 135.5,246C 135.833,245.167 136.167,244.333 136.5,243.5C 137.736,244.246 139.07,244.579 140.5,244.5 Z"/>
  </g>
  <g>
    <path fill="#bf9356" d="M 178.5,258.5 C 180.898,258.259 182.898,258.926 184.5,260.5C 182.102,260.741 180.102,260.074 178.5,258.5 Z"/>
  </g>
  <g>
    <path fill="#1d4c5a" d="M 263.5,246.5 C 271.419,248.813 279.419,250.813 287.5,252.5C 299.943,254.701 311.109,259.701 321,267.5C 322.441,276.058 322.941,284.724 322.5,293.5C 321.066,302.358 319.733,311.358 318.5,320.5C 319.562,323.103 319.728,325.77 319,328.5C 318.727,326.899 318.227,325.399 317.5,324C 317.833,323.667 318.167,323.333 318.5,323C 317.007,321.632 315.507,321.465 314,322.5C 313.612,321.572 312.945,320.905 312,320.5C 309.692,324.599 306.359,325.933 302,324.5C 301.667,325.833 301.333,327.167 301,328.5C 298.047,327.249 295.047,327.249 292,328.5C 291.05,327.978 290.216,327.311 289.5,326.5C 288.452,327.383 287.285,328.05 286,328.5C 282.944,327.923 279.944,327.257 277,326.5C 274.973,327.212 273.973,328.212 274,329.5C 272.941,329.37 272.108,328.87 271.5,328C 272.621,325.077 272.287,324.911 270.5,327.5C 269.311,328.429 267.978,328.762 266.5,328.5C 266.663,326.143 266.497,323.81 266,321.5C 264.984,322.634 264.317,322.301 264,320.5C 260.336,322.811 259.003,326.145 260,330.5C 263.357,331.742 263.19,332.576 259.5,333C 260.634,334.016 260.301,334.683 258.5,335C 259.167,335.667 259.833,336.333 260.5,337C 258.569,339.304 256.236,341.138 253.5,342.5C 252.548,344.045 252.215,345.712 252.5,347.5C 251.5,347.5 250.5,347.5 249.5,347.5C 254.85,329.301 262.516,312.134 272.5,296C 268.666,289.497 265.499,282.664 263,275.5C 260.839,265.769 261.005,256.102 263.5,246.5 Z"/>
  </g>
  <g>
    <path fill="#776c68" d="M 194.5,260.5 C 194.672,261.492 194.338,262.158 193.5,262.5C 191.265,262.795 189.265,262.461 187.5,261.5C 189.95,261.702 192.283,261.369 194.5,260.5 Z"/>
  </g>
  <g>
    <path fill="#094d8a" d="M 142.5,244.5 C 149.859,247.549 157.193,250.549 164.5,253.5C 168.63,256.324 173.297,257.991 178.5,258.5C 180.102,260.074 182.102,260.741 184.5,260.5C 185.209,261.404 186.209,261.737 187.5,261.5C 189.265,262.461 191.265,262.795 193.5,262.5C 193.5,263.833 193.5,265.167 193.5,266.5C 191.882,283.752 188.382,300.752 183,317.5C 182.502,320.817 182.335,324.15 182.5,327.5C 181.566,326.432 181.232,325.099 181.5,323.5C 180.448,323.649 179.448,323.483 178.5,323C 164.087,310.428 153.42,295.261 146.5,277.5C 148.582,277.624 150.082,278.624 151,280.5C 151.71,279.027 152.876,278.36 154.5,278.5C 155.434,281.564 156.434,284.231 157.5,286.5C 158.167,284.5 158.833,282.5 159.5,280.5C 160.192,281.025 160.692,281.692 161,282.5C 162.312,280.342 163.978,280.009 166,281.5C 166.309,280.234 166.809,279.067 167.5,278C 171.222,277.582 172.222,275.749 170.5,272.5C 169.325,273.855 168.325,273.688 167.5,272C 169.594,270.648 171.927,270.148 174.5,270.5C 174.561,268.408 175.561,266.908 177.5,266C 175.667,264.167 173.833,262.333 172,260.5C 170.989,261.337 169.822,261.67 168.5,261.5C 168.672,259.508 168.005,257.842 166.5,256.5C 162.396,255.533 158.396,254.366 154.5,253C 152.413,252.208 150.579,251.041 149,249.5C 148.667,250.5 148.333,251.5 148,252.5C 147.691,251.234 147.191,250.067 146.5,249C 146.833,248.667 147.167,248.333 147.5,248C 145.064,247.794 143.398,246.627 142.5,244.5 Z"/>
  </g>
  <g>
    <path fill="#051925" d="M 287.5,252.5 C 288.097,251.861 288.93,251.528 290,251.5C 300.157,253.308 310.323,254.975 320.5,256.5C 323.135,259.079 325.301,262.079 327,265.5C 333.185,280.92 337.018,296.92 338.5,313.5C 339.335,319.846 340.335,326.179 341.5,332.5C 341.342,335.932 340.008,338.599 337.5,340.5C 328.109,349.557 318.109,357.89 307.5,365.5C 310.07,354.616 314.237,343.949 320,333.5C 322.275,320.281 323.108,306.948 322.5,293.5C 322.941,284.724 322.441,276.058 321,267.5C 311.109,259.701 299.943,254.701 287.5,252.5 Z"/>
  </g>
  <g>
    <path fill="#bbf0fb" d="M 193.5,266.5 C 193.334,271.844 193.501,277.177 194,282.5C 206.146,299.442 217.812,316.775 229,334.5C 229.49,335.793 229.657,337.127 229.5,338.5C 228.357,338.908 227.357,339.575 226.5,340.5C 217.413,353.229 208.413,365.896 199.5,378.5C 195.333,373.51 192.167,367.844 190,361.5C 186.414,350.402 183.914,339.069 182.5,327.5C 182.335,324.15 182.502,320.817 183,317.5C 188.382,300.752 191.882,283.752 193.5,266.5 Z"/>
  </g>
  <g>
    <path fill="#194553" d="M 322.5,293.5 C 323.108,306.948 322.275,320.281 320,333.5C 314.237,343.949 310.07,354.616 307.5,365.5C 302.929,370.963 299.095,376.963 296,383.5C 295.439,384.022 294.772,384.355 294,384.5C 280.701,376.768 267.201,369.435 253.5,362.5C 247.178,358.944 245.844,353.944 249.5,347.5C 250.5,347.5 251.5,347.5 252.5,347.5C 252.215,345.712 252.548,344.045 253.5,342.5C 256.236,341.138 258.569,339.304 260.5,337C 259.833,336.333 259.167,335.667 258.5,335C 260.301,334.683 260.634,334.016 259.5,333C 263.19,332.576 263.357,331.742 260,330.5C 259.003,326.145 260.336,322.811 264,320.5C 264.317,322.301 264.984,322.634 266,321.5C 266.497,323.81 266.663,326.143 266.5,328.5C 267.978,328.762 269.311,328.429 270.5,327.5C 272.287,324.911 272.621,325.077 271.5,328C 272.108,328.87 272.941,329.37 274,329.5C 273.973,328.212 274.973,327.212 277,326.5C 279.944,327.257 282.944,327.923 286,328.5C 287.285,328.05 288.452,327.383 289.5,326.5C 290.216,327.311 291.05,327.978 292,328.5C 295.047,327.249 298.047,327.249 301,328.5C 301.333,327.167 301.667,325.833 302,324.5C 306.359,325.933 309.692,324.599 312,320.5C 312.945,320.905 313.612,321.572 314,322.5C 315.507,321.465 317.007,321.632 318.5,323C 318.167,323.333 317.833,323.667 317.5,324C 318.227,325.399 318.727,326.899 319,328.5C 319.728,325.77 319.562,323.103 318.5,320.5C 319.733,311.358 321.066,302.358 322.5,293.5 Z"/>
  </g>
  <g>
    <path fill="#d3e2e1" d="M 229.5,338.5 C 220.857,350.433 212.691,362.766 205,375.5C 203.951,377.384 202.451,378.718 200.5,379.5C 199.833,379.5 199.5,379.167 199.5,378.5C 208.413,365.896 217.413,353.229 226.5,340.5C 227.357,339.575 228.357,338.908 229.5,338.5 Z"/>
  </g>
  <g>
    <path fill="#cccbcb" d="M 337.5,340.5 C 338.043,340.56 338.376,340.893 338.5,341.5C 337.391,344.708 336.058,347.708 334.5,350.5C 334.631,349.761 334.464,349.094 334,348.5C 324.665,362.18 314.165,375.014 302.5,387C 297.124,391.626 291.124,392.626 284.5,390C 271.472,383.801 261.139,374.635 253.5,362.5C 267.201,369.435 280.701,376.768 294,384.5C 294.772,384.355 295.439,384.022 296,383.5C 299.095,376.963 302.929,370.963 307.5,365.5C 318.109,357.89 328.109,349.557 337.5,340.5 Z"/>
  </g>
  <g>
    <path fill="#011626" d="M 306.5,388.5 C 315.941,392.59 325.775,395.59 336,397.5C 341.583,400.141 347.083,402.974 352.5,406C 360.776,413.447 360.443,420.447 351.5,427C 340.829,432.999 329.496,437.333 317.5,440C 282.946,445.302 248.28,445.969 213.5,442C 205.767,439.393 197.767,437.727 189.5,437C 178.522,433.678 168.188,429.011 158.5,423C 153.103,419.561 151.437,414.894 153.5,409C 147.907,407.773 142.574,405.939 137.5,403.5C 138,403.167 138.5,402.833 139,402.5C 153.092,400.41 167.259,398.91 181.5,398C 189.683,395.764 198.016,394.43 206.5,394C 208.653,393.901 210.319,393.067 211.5,391.5C 216.037,393.93 220.37,396.597 224.5,399.5C 225.303,400.423 225.47,401.423 225,402.5C 223.039,405.135 220.539,406.969 217.5,408C 235.049,409.016 252.549,409.849 270,410.5C 271.4,409.884 272.9,409.551 274.5,409.5C 279.701,411.133 285.034,412.133 290.5,412.5C 290.703,410.61 290.037,409.11 288.5,408C 286.5,407 284.5,406 282.5,405C 283.653,403.117 285.319,402.284 287.5,402.5C 287.5,401.5 287.5,400.5 287.5,399.5C 294.109,396.205 300.443,392.538 306.5,388.5 Z"/>
  </g>
  <g>
    <path fill="#060b13" d="M 224.5,399.5 C 245.473,407.474 266.473,407.474 287.5,399.5C 287.5,400.5 287.5,401.5 287.5,402.5C 285.319,402.284 283.653,403.117 282.5,405C 284.5,406 286.5,407 288.5,408C 290.037,409.11 290.703,410.61 290.5,412.5C 285.034,412.133 279.701,411.133 274.5,409.5C 272.9,409.551 271.4,409.884 270,410.5C 252.549,409.849 235.049,409.016 217.5,408C 220.539,406.969 223.039,405.135 225,402.5C 225.47,401.423 225.303,400.423 224.5,399.5 Z"/>
  </g>
</svg>